<?xml version="1.0" encoding="utf-8"?><!-- Uploaded to: SVG Repo, www.svgrepo.com, Generator: SVG Repo Mixer Tools -->
<svg fill="#000000" width="800px" height="800px" viewBox="0 0 24 24" id="gumroad" data-name="Flat Line" xmlns="http://www.w3.org/2000/svg" class="icon flat-line"><path id="primary" d="M20,4H4A1,1,0,0,0,3,5V20a1,1,0,0,0,1,1H20a1,1,0,0,0,1-1V11a1,1,0,0,0-1-1H10a1,1,0,0,0-1,1v4a1,1,0,0,0,1,1h5" style="fill: none; stroke: rgb(0, 0, 0); stroke-linecap: round; stroke-linejoin: round; stroke-width: 2;"></path><line id="primary-upstroke" x1="19.95" y1="4" x2="20.05" y2="4" style="fill: none; stroke: rgb(0, 0, 0); stroke-linecap: round; stroke-linejoin: round; stroke-width: 2.5;"></line><line id="primary-upstroke-2" data-name="primary-upstroke" x1="14.95" y1="16" x2="15.05" y2="16" style="fill: none; stroke: rgb(0, 0, 0); stroke-linecap: round; stroke-linejoin: round; stroke-width: 2.5;"></line></svg>